<svg xmlns="http://www.w3.org/2000/svg" width="54.989" height="34.811" viewBox="0 0 54.989 34.811">
  <g transform="translate(-3510.978 -443.02)">
    <g>
      <path d="M3510.978,477.831v-4.35h9.18c1.47,0,2.16-.78,2.16-2.43v-1.53a2.318,2.318,0,0,0-2.37-2.61h-7.77v-4.02h7.349c1.651,0,2.4-.75,2.4-2.25v-1.23a1.9,1.9,0,0,0-2.13-2.16h-8.82V452.9h9.3c4.2,0,6.6,2.1,6.6,5.7v1.649c0,2.55-.9,3.96-2.82,4.65,2.25.36,3.21,2.22,3.21,4.5v2.37c0,3.75-2.581,6.06-6.6,6.06Z" fill="#08b3d2"/>
      <path d="M3536.418,477.831a6.3,6.3,0,0,1-6.6-6.6V459.5a6.3,6.3,0,0,1,6.6-6.6h9.3v4.349h-8.549a2.208,2.208,0,0,0-2.4,2.4v2.97h5.849a6.3,6.3,0,0,1,6.6,6.6v2.01a6.3,6.3,0,0,1-6.6,6.6Zm5.85-8.46a2.209,2.209,0,0,0-2.4-2.4h-5.1v4.11a2.208,2.208,0,0,0,2.4,2.4h2.7a2.209,2.209,0,0,0,2.4-2.4Z" fill="#08b3d2"/>
      <path d="M3549.318,477.831v-4.35h9.57a1.9,1.9,0,0,0,2.13-2.16v-2.19a1.9,1.9,0,0,0-2.13-2.16h-6.271c-2.4,0-3.3-.9-3.3-3.3V452.9h16.049v4.349h-11.1v4.47c0,.75.15.9.9.9h4.2c4.2,0,6.6,2.1,6.6,5.7v3.81c0,3.6-2.4,5.7-6.6,5.7Z" fill="#08b3d2"/>
    </g>
    <rect width="8.504" height="4.252" rx="1.701" transform="translate(3553.364 443.02)" fill="#08b3d2"/>
  </g>
</svg>
